<svg width="239" height="239" viewBox="72 73 95 95" fill="none" xmlns="http://www.w3.org/2000/svg" role="img" aria-label="ATOM">
  <title>ATOM</title>
  <path fill-rule="evenodd" clip-rule="evenodd" d="M97.5645 78C108.922 78 118.129 87.207 118.129 98.5645V119.129H100.314V108.436H94.8145V119.129H77V98.5645C77 87.207 86.207 78 97.5645 78ZM94.8145 102.129H100.314V95.6133H94.8145V102.129Z" fill="#042028"/>
  <path d="M120.871 98.5659C120.871 87.2085 130.078 78.0015 141.436 78.0015C152.333 78.0015 161.248 86.4771 161.953 97.1953H143.064V119.13H139.807V97.1953H120.918C120.887 97.6484 120.871 98.1055 120.871 98.5659Z" fill="#042028"/>
  <path fill-rule="evenodd" clip-rule="evenodd" d="M97.5654 121.871C108.923 121.871 118.129 131.078 118.129 142.436C118.129 153.793 108.922 163 97.5645 163C86.207 163 77.0001 153.794 77 142.437C77 131.079 86.2075 121.871 97.5654 121.871ZM97.5654 132.25C103.191 132.25 107.752 136.811 107.752 142.436C107.752 148.06 103.19 152.621 97.5645 152.621C91.9404 152.621 87.3779 148.061 87.3779 142.437C87.3779 136.812 91.9409 132.25 97.5654 132.25Z" fill="#042028"/>
  <path fill-rule="evenodd" clip-rule="evenodd" d="M141.436 163C130.078 163 120.871 153.793 120.871 142.436L120.871 126.277C120.871 123.844 122.844 121.871 125.277 121.871L157.594 121.871C160.027 121.871 162 123.844 162 126.277L162 142.436C162 153.793 152.793 163 141.436 163ZM130.2 121.871H136.2L141.436 151.4H136.8L130.2 121.871ZM146.05 151.4H141.45L146.7 121.871H152.7L146.05 151.4Z" fill="#042028"/>
</svg>
